<svg width="1400" height="1800" viewBox="0 0 1400 1800" fill="none" xmlns="http://www.w3.org/2000/svg">
  <rect width="1400" height="1800" fill="#14050C"/>
  <g opacity="0.95">
    <ellipse cx="700" cy="1470" rx="360" ry="260" fill="#1E0C13"/>
    <path d="M490 710C490 560 570 470 700 470C830 470 910 560 910 710V845H490V710Z" fill="#FF4FB3"/>
    <path d="M560 350C560 250 620 190 700 190C780 190 840 250 840 350V500H560V350Z" fill="#FF7B3D"/>
    <circle cx="600" cy="650" r="66" fill="#FFD9C5"/>
    <circle cx="800" cy="650" r="66" fill="#FFD9C5"/>
    <circle cx="600" cy="650" r="28" fill="#170B11"/>
    <circle cx="800" cy="650" r="28" fill="#170B11"/>
    <path d="M560 730C600 800 650 840 700 840C750 840 800 800 840 730" stroke="#170B11" stroke-width="16" stroke-linecap="round"/>
    <path d="M560 860C620 930 660 970 700 970C740 970 780 930 840 860" stroke="#8E2DFF" stroke-width="12" stroke-linecap="round"/>
    <path d="M600 980L560 1120" stroke="#FF4FB3" stroke-width="15" stroke-linecap="round"/>
    <path d="M800 980L840 1120" stroke="#FF4FB3" stroke-width="15" stroke-linecap="round"/>
    <path d="M560 1120H840" stroke="#FF4FB3" stroke-width="13" stroke-linecap="round"/>
    <path d="M470 655C430 710 400 790 400 860" stroke="#FF4FB3" stroke-width="16" stroke-linecap="round"/>
    <path d="M930 655C970 710 1000 790 1000 860" stroke="#FF4FB3" stroke-width="16" stroke-linecap="round"/>
    <path d="M430 450C500 300 580 220 700 220" stroke="#FF7B3D" stroke-width="12" stroke-linecap="round"/>
    <path d="M970 450C900 300 820 220 700 220" stroke="#FF7B3D" stroke-width="12" stroke-linecap="round"/>
    <circle cx="450" cy="550" r="34" fill="#FF4FB3" fill-opacity="0.65"/>
    <circle cx="950" cy="550" r="34" fill="#FF4FB3" fill-opacity="0.65"/>
    <path d="M590 540C630 500 670 480 700 480C730 480 770 500 810 540" stroke="#FBD0E3" stroke-width="10" stroke-linecap="round"/>
  </g>
</svg>
